<svg id="logo" fill="none" viewBox="0 0 108 48" xmlns="http://www.w3.org/2000/svg"><g fill="#00569d"><path d="m9.11443 38.5943 6.55747-9.1146h-6.0022l-4.74982 7.0309h-.01091v-7.0309h-4.891636v18.5357h4.891636v-7.3102h.03709l5.16874 7.3102h6.0862z"/><path d="m29.5623 37.3167c-1.1662-.3622-1.2229-.3622-5.724-.6949-1.5829-.1124-1.7509-.1396-2.0563-.4178-.2782-.2215-.4168-.6666-.4168-1.2786 0-1.4727.5826-1.8054 3.0011-1.8054 2.112 0 2.6128.3338 2.6128 1.8054v.3338h4.7225l.0284-.8334c0-1.5567-.3055-2.6684-1.0015-3.5018-.9436-1.1957-2.5276-1.5829-6.4178-1.5829-3.6131 0-5.1687.2771-6.3916 1.1389-1.055.7505-1.5284 2.1392-1.5284 4.3898 0 3.3065.8356 4.668 3.1407 5.2516.9458.2215 2.4742.3884 5.5015.5564 1.9461.1113 2.3356.4178 2.3356 1.7225 0 .7506-.1658 1.1662-.5269 1.4717-.4178.3622-.6676.3883-2.2789.3883-2.28 0-2.5015-.0261-2.9182-.3589-.3873-.2792-.5564-.7505-.5564-1.5283v-.3622h-4.7236c0 2.2494.1669 3.2498.7506 4.1683.9447 1.5 2.7229 1.9735 7.4476 1.9735 3.6676 0 5.1665-.3349 6.3905-1.3887.9426-.8346 1.3048-2.112 1.3048-4.6135-.0011-2.9727-.6677-4.1945-2.6957-4.8338z"/><path d="m46.8936 38.6498v-.0829c.8073-.1113 1.2796-.3055 1.92-.7778.8596-.6404 1.1651-1.584 1.1651-3.3895 0-3.5847-1.4727-4.9189-5.5571-4.9189h-10.0593v18.5346h10.1695c4.3069 0 5.7512-1.2502 5.7512-4.9757.0022-3.1113-.8312-4.1672-3.3894-4.3898zm-7.5567-5.0847h4.0003c1.3898 0 1.7248.3054 1.7248 1.5556 0 .8629-.1953 1.3898-.6393 1.584-.2782.1669-.2782.1669-1.9451.1953h-3.1407zm3.3065 10.3647h-3.3065v-3.6131h3.6414c1.3887.0556 1.3887.0556 1.5829.1396.5848.2226.7767.6404.7767 1.7499 0 1.3625-.5541 1.7236-2.6945 1.7236z"/></g><path d="m94.8861 0h-23.9771c-7.2185 0-13.0909 5.87236-13.0909 13.0909v5.0029l4.3637-4.3636 4.3636 4.3636v-5.0029c0-2.4065 1.9571-4.36363 4.3636-4.36363h23.9771c2.4066 0 4.3637 1.95713 4.3637 4.36363v21.8182c0 2.4065-1.9571 4.3636-4.3637 4.3636h-3.2498v8.7273h3.2498c7.2189 0 13.0909-5.8724 13.0909-13.0909v-21.8182c0-7.21854-5.872-13.0909-13.0909-13.0909z" fill="#bbb"/><path d="m83.5069 39.2727c-1.1585 3.9327-4.0331 7.1367-7.7618 8.7273h14.8004v-8.7273z" fill="#00569d"/><path d="m70.3974 22.8414c-.9491 0-1.872.1146-2.7611.3153v9.588c.7015-.7222 1.6778-1.176 2.7611-1.176 2.124 0 3.852 1.728 3.852 3.852s-1.7269 3.852-3.852 3.852c-2.1131 0-3.8302-1.7094-3.8487-3.8182h-.0033v-.0338-.5116-11.4589-3.8139l-4.3636-4.3636-4.3637 4.3636v15.2728h.0218c-.0076.1702-.0218.3392-.0218.5116 0 6.936 5.6433 12.5793 12.5793 12.5793s12.5793-5.6433 12.5793-12.5793-5.6422-12.5793-12.5793-12.5793z" fill="#00569d"/></svg>